<svg width="120" height="120" viewBox="0 0 120 120" fill="none" xmlns="http://www.w3.org/2000/svg">
<path d="M97.4445 103.807C98.2952 104.802 99.795 104.923 100.756 104.034C107.402 97.8827 112.577 90.2994 115.881 81.8464C119.474 72.6566 120.745 62.7227 119.581 52.9245C118.418 43.1263 114.856 33.7662 109.211 25.6735C103.566 17.5807 96.0119 11.0051 87.2185 6.52897C78.4252 2.05285 68.6636 -0.185552 58.7985 0.0120306C48.9335 0.209613 39.2694 2.83708 30.6623 7.6617C22.0552 12.4863 14.7708 19.3592 9.45433 27.6715C4.56412 35.3173 1.47777 43.9639 0.414815 52.9568C0.261145 54.2569 1.24115 55.3987 2.5463 55.5009C3.85145 55.6031 4.98708 54.6269 5.14516 53.3274C6.14448 45.1118 8.97802 37.2149 13.4481 30.2259C18.3445 22.5703 25.0533 16.2406 32.9804 11.7971C40.9074 7.35374 49.8079 4.93387 58.8935 4.7519C67.9791 4.56993 76.9693 6.63147 85.0679 10.7539C93.1665 14.8764 100.123 20.9324 105.322 28.3858C110.521 35.8391 113.802 44.4595 114.874 53.4835C115.945 62.5076 114.775 71.6566 111.466 80.1202C108.445 87.847 103.727 94.7848 97.6727 100.427C96.715 101.319 96.5939 102.812 97.4445 103.807Z" fill="#FED430" fill-opacity="0.81"/>
<circle r="2" transform="matrix(-1 0 0 1 3 64)" fill="#FED430" fill-opacity="0.81"/>
<circle r="2" transform="matrix(-1 0 0 1 5 77)" fill="#FED430" fill-opacity="0.81"/>
<circle r="2" transform="matrix(-1 0 0 1 11 90)" fill="#FED430" fill-opacity="0.81"/>
<circle r="2" transform="matrix(-1 0 0 1 21 102)" fill="#FED430" fill-opacity="0.81"/>
<circle r="2" transform="matrix(-1 0 0 1 34 110)" fill="#FED430" fill-opacity="0.81"/>
<circle r="2" transform="matrix(-1 0 0 1 50 115)" fill="#FED430" fill-opacity="0.81"/>
<circle r="2" transform="matrix(-1 0 0 1 69 115)" fill="#FED430" fill-opacity="0.81"/>
<circle r="2" transform="matrix(-1 0 0 1 84 111)" fill="#FED430" fill-opacity="0.81"/>
</svg>
